<?xml version="1.0" encoding="UTF-8"?>
<!DOCTYPE svg PUBLIC "-//W3C//DTD SVG 1.1//EN" "http://www.w3.org/Graphics/SVG/1.1/DTD/svg11.dtd">
<!-- Creator: CorelDRAW -->
<svg xmlns="http://www.w3.org/2000/svg" xml:space="preserve" width="10.1523mm" height="13.4351mm" version="1.1" style="shape-rendering:geometricPrecision; text-rendering:geometricPrecision; image-rendering:optimizeQuality; fill-rule:evenodd; clip-rule:evenodd"
viewBox="0 0 37.37 49.45"
 xmlns:xlink="http://www.w3.org/1999/xlink"
 xmlns:xodm="http://www.corel.com/coreldraw/odm/2003">
 <defs>
  <style type="text/css">
   <![CDATA[
    .fil0 {fill:red}
   ]]>
  </style>
 </defs>
 <g id="Capa_x0020_1">
  <metadata id="CorelCorpID_0Corel-Layer"/>
  <path class="fil0" d="M14.56 20.98c0.39,0.59 1.89,5.47 2.24,6.54l2.29 6.56 4.51 -13.13 7.93 0.02c-0.19,0.75 -0.92,2.32 -1.25,3.09l-3.81 9.18c-0.85,2.05 -1.67,4.09 -2.55,6.15 -2.43,5.69 -8.19,4.21 -9.9,0.26 -0.89,-2.05 -1.71,-4.13 -2.53,-6.17l-3.82 -9.28c-0.31,-0.76 -1.04,-2.29 -1.21,-3.04l8.1 -0.19zm4.16 -20.98c-0.19,0.11 -0.04,-0 -0.19,0.13l-3.64 4.12c-0.44,0.49 -0.89,0.9 -1.32,1.39 -4.88,5.55 -11.02,11.63 -13,19.68 -2.93,11.87 5.85,24.14 18.15,24.13 5.97,-0.01 10.68,-2.68 14.37,-7.08 3.08,-3.67 5.39,-10.57 3.73,-17.01 -0.73,-2.82 -2.01,-5.38 -3.33,-7.51 -0.75,-1.21 -1.42,-2.12 -2.2,-3.24 -2.6,-3.73 -5.79,-6.9 -8.75,-10.25l-3.82 -4.36z"/>
 </g>
</svg>
