<?xml version="1.0" encoding="UTF-8"?>
<!DOCTYPE svg PUBLIC "-//W3C//DTD SVG 1.1//EN" "http://www.w3.org/Graphics/SVG/1.1/DTD/svg11.dtd">
<!-- Creator: CorelDRAW -->
<svg xmlns="http://www.w3.org/2000/svg" xml:space="preserve" width="33.8667mm" height="8.4667mm" version="1.1" style="shape-rendering:geometricPrecision; text-rendering:geometricPrecision; image-rendering:optimizeQuality; fill-rule:evenodd; clip-rule:evenodd"
viewBox="0 0 459.35 114.84"
 xmlns:xlink="http://www.w3.org/1999/xlink"
 xmlns:xodm="http://www.corel.com/coreldraw/odm/2003">
 <defs>
  <style type="text/css">
   <![CDATA[
    .fil2 {fill:none}
    .fil1 {fill:#FEFEFE}
    .fil0 {fill:#ED3237}
   ]]>
  </style>
 </defs>
 <g id="Capa_x0020_1">
  <metadata id="CorelCorpID_0Corel-Layer"/>
  <path class="fil0" d="M68.91 50.27c0.75,1.12 3.61,10.43 4.28,12.48l4.37 12.52 8.61 -25.03 15.11 0.04c-0.36,1.43 -1.75,4.42 -2.38,5.89l-7.27 17.51c-1.62,3.92 -3.19,7.81 -4.86,11.73 -4.63,10.85 -15.61,8.04 -18.88,0.49 -1.69,-3.9 -3.26,-7.87 -4.82,-11.76l-7.28 -17.69c-0.58,-1.46 -1.99,-4.36 -2.31,-5.8l15.44 -0.37zm7.93 -40c-0.37,0.2 -0.07,-0 -0.35,0.25l-6.94 7.86c-0.83,0.94 -1.7,1.72 -2.51,2.65 -9.31,10.59 -21.01,22.19 -24.79,37.53 -5.58,22.64 11.16,46.03 34.6,46.01 11.38,-0.01 20.37,-5.1 27.4,-13.49 5.87,-7 10.28,-20.16 7.11,-32.44 -1.39,-5.38 -3.83,-10.26 -6.34,-14.33 -1.42,-2.3 -2.7,-4.05 -4.2,-6.19 -4.96,-7.11 -11.04,-13.16 -16.69,-19.55l-7.29 -8.3z"/>
  <path class="fil1" d="M200.22 42.79c17.43,-4.22 22.49,25.17 5.84,29.28 -17.47,4.31 -22.85,-25.16 -5.84,-29.28zm28.2 18.45c2.24,-15.88 -8.8,-28.11 -21.67,-29.99 -15.3,-2.23 -27.17,8.62 -29,22.24 -2.17,16.17 8.6,28.34 21.67,30.13 15.25,2.09 27.1,-8.87 29,-22.38z"/>
  <path class="fil1" d="M327.91 52.28l18.71 30.58 10.6 -0.09 -0.01 -50.78 -11.83 -0.02 0.41 31.23c-0.88,-0.64 -0.05,0.09 -0.71,-0.64l-2.03 -3.35c-0.73,-1.28 -1.5,-2.58 -2.22,-3.78l-13.69 -23.45 -10.76 0.03 0.04 50.84 11.78 -0.02 -0.3 -30.56z"/>
  <path class="fil1" d="M288.24 48.24c0.06,0.07 0.12,0.18 0.15,0.24l1.37 4.07c0.36,1.28 0.79,2.71 1.2,4.14 0.62,2.14 2.1,6.43 2.24,8.47l-9.89 -0.05 4.93 -16.87zm-8.49 27.25l17.03 -0.01c0.39,1.2 0.78,2.61 1.22,4.01 0.62,1.99 0.6,3.13 1.63,3.38l12.84 -0.06 -19.18 -50.83 -9.9 0.08 -19.21 50.8 13.16 -0.05 2.4 -7.33z"/>
  <path class="fil1" d="M177.15 31.98l-12.65 0.17c-0.9,1.96 -1.87,6.47 -2.51,8.82l-7.51 26.16 -9.65 -34.87c-2.35,-0.9 -9.52,-0.29 -12.66,-0.26 0.63,3.18 12.09,38.48 14.23,45.02 2.45,7.53 -0.7,5.87 14.6,5.75l16.16 -50.78z"/>
  <polygon class="fil1" points="361.9,43.38 362.39,43.38 371.5,43.49 371.56,82.87 383.82,82.86 383.89,43.41 393.45,43.39 393.41,31.98 361.91,31.99 "/>
  <path class="fil1" d="M234.88 82.78l26.62 0.09 0.02 -11.38 -14.31 -0.07c0,-6.01 0.68,-36.23 -0.22,-39.45l-11.96 -0.01c-0.49,2.09 -0.34,45.68 -0.15,50.83z"/>
  <polygon class="fil0" points="397.96,62.4 424.53,62.4 424.55,51.52 398.01,51.49 "/>
  <path class="fil0" d="M398.09 72.1c-0.28,1.99 -0.37,9.13 0.07,10.93l26.42 -0.13 -0.03 -10.78 -26.46 -0.01z"/>
  <polygon class="fil0" points="397.95,42.69 424.55,42.69 424.54,31.81 398.07,31.79 "/>
  <rect class="fil2" x="0" y="-0" width="459.35" height="114.84"/>
 </g>
</svg>
