<?xml version="1.0" encoding="UTF-8"?>
<!DOCTYPE svg PUBLIC "-//W3C//DTD SVG 1.1//EN" "http://www.w3.org/Graphics/SVG/1.1/DTD/svg11.dtd">
<!-- Creator: CorelDRAW -->
<svg xmlns="http://www.w3.org/2000/svg" xml:space="preserve" width="33.8667mm" height="8.4667mm" version="1.1" style="shape-rendering:geometricPrecision; text-rendering:geometricPrecision; image-rendering:optimizeQuality; fill-rule:evenodd; clip-rule:evenodd"
viewBox="0 0 695.48 173.87"
 xmlns:xlink="http://www.w3.org/1999/xlink"
 xmlns:xodm="http://www.corel.com/coreldraw/odm/2003">
 <defs>
  <style type="text/css">
   <![CDATA[
    .fil3 {fill:none}
    .fil2 {fill:black}
    .fil1 {fill:black}
    .fil0 {fill:red}
   ]]>
  </style>
 </defs>
 <g id="Capa_x0020_1">
  <metadata id="CorelCorpID_0Corel-Layer"/>
  <path class="fil0" d="M104.34 76.11c1.13,1.69 5.46,15.8 6.48,18.89l6.62 18.95 13.03 -37.9 22.88 0.06c-0.55,2.17 -2.65,6.69 -3.61,8.92l-11.01 26.51c-2.46,5.93 -4.82,11.82 -7.36,17.76 -7,16.42 -23.64,12.17 -28.59,0.75 -2.56,-5.9 -4.94,-11.91 -7.3,-17.81l-11.03 -26.79c-0.88,-2.21 -3.01,-6.61 -3.5,-8.78l23.38 -0.56zm12.01 -60.56c-0.55,0.3 -0.11,-0 -0.53,0.38l-10.51 11.9c-1.26,1.42 -2.57,2.61 -3.81,4.02 -14.1,16.03 -31.81,33.59 -37.54,56.82 -8.45,34.27 16.89,69.69 52.39,69.66 17.23,-0.01 30.84,-7.73 41.49,-20.43 8.88,-10.6 15.57,-30.52 10.77,-49.11 -2.1,-8.15 -5.8,-15.53 -9.6,-21.69 -2.15,-3.48 -4.09,-6.13 -6.35,-9.37 -7.51,-10.76 -16.71,-19.93 -25.27,-29.59l-11.04 -12.57z"/>
  <g id="_2672251799424">
   <path class="fil1" d="M303.14 64.79c26.39,-6.39 34.05,38.11 8.84,44.33 -26.45,6.53 -34.59,-38.09 -8.84,-44.33zm42.69 27.94c3.38,-24.05 -13.32,-42.57 -32.81,-45.41 -23.16,-3.38 -41.14,13.05 -43.9,33.67 -3.28,24.47 13.02,42.91 32.8,45.61 23.09,3.16 41.03,-13.42 43.91,-33.88z"/>
   <path class="fil1" d="M496.47 79.16l28.32 46.31 16.05 -0.13 -0.01 -76.88 -17.91 -0.03 0.63 47.28c-1.33,-0.96 -0.08,0.14 -1.08,-0.96l-3.07 -5.07c-1.1,-1.93 -2.28,-3.91 -3.36,-5.73l-20.73 -35.5 -16.29 0.05 0.07 76.97 17.84 -0.03 -0.46 -46.27z"/>
   <path class="fil1" d="M436.41 73.03c0.08,0.11 0.18,0.27 0.23,0.36l2.07 6.16c0.54,1.94 1.19,4.11 1.82,6.27 0.94,3.25 3.18,9.73 3.39,12.83l-14.97 -0.08 7.46 -25.54zm-12.86 41.26l25.79 -0.02c0.6,1.82 1.19,3.95 1.85,6.08 0.94,3.01 0.9,4.74 2.46,5.12l19.44 -0.1 -29.03 -76.96 -14.98 0.13 -29.08 76.92 19.92 -0.07 3.63 -11.09z"/>
   <path class="fil1" d="M268.22 48.42l-19.15 0.25c-1.36,2.96 -2.84,9.8 -3.81,13.35l-11.37 39.61 -14.61 -52.79c-3.56,-1.36 -14.42,-0.43 -19.17,-0.4 0.96,4.82 18.31,58.25 21.54,68.17 3.71,11.41 -1.06,8.88 22.1,8.71l24.46 -76.89z"/>
   <polygon class="fil2" points="547.94,65.69 548.67,65.68 562.47,65.85 562.56,125.46 581.13,125.46 581.23,65.73 595.7,65.7 595.65,48.42 547.94,48.44 "/>
   <path class="fil1" d="M355.62 125.33l40.3 0.13 0.02 -17.23 -21.67 -0.11c0.01,-9.1 1.03,-54.85 -0.33,-59.73l-18.1 -0.02c-0.74,3.16 -0.51,69.16 -0.22,76.96z"/>
   <polygon class="fil0" points="602.53,94.48 642.75,94.48 642.79,78 602.61,77.96 "/>
   <path class="fil0" d="M602.73 109.17c-0.42,3.01 -0.56,13.83 0.11,16.55l40 -0.2 -0.05 -16.32 -40.06 -0.02z"/>
   <polygon class="fil0" points="602.52,64.63 642.78,64.63 642.77,48.16 602.69,48.13 "/>
  </g>
  <rect class="fil3" x="0" y="-0" width="695.48" height="173.87"/>
 </g>
</svg>
