<?xml version="1.0" standalone="no"?>
<!DOCTYPE svg PUBLIC "-//W3C//DTD SVG 20010904//EN"
 "http://www.w3.org/TR/2001/REC-SVG-20010904/DTD/svg10.dtd">
<svg version="1.0" xmlns="http://www.w3.org/2000/svg"
 width="160.000000pt" height="160.000000pt" viewBox="0 0 160.000000 160.000000"
 preserveAspectRatio="xMidYMid meet">
<metadata>
Created by potrace 1.14, written by Peter Selinger 2001-2017
</metadata>
<g transform="translate(0.000000,160.000000) scale(0.100000,-0.100000)"
fill="#000000" stroke="none">
<path d="M765 1558 c-15 -18 -44 -51 -64 -73 -351 -386 -441 -522 -485 -732
-46 -219 42 -466 219 -610 339 -277 834 -99 945 341 27 108 22 243 -14 345
-59 168 -162 320 -381 560 -58 63 -55 60 -119 134 -32 37 -62 67 -66 67 -5 0
-20 -15 -35 -32z m441 -640 c4 -5 -146 -376 -191 -475 -8 -17 -15 -34 -15 -38
0 -12 -59 -126 -72 -139 -70 -69 -164 -70 -232 -2 -18 18 -50 73 -74 131 -106
250 -210 511 -206 517 2 3 60 7 128 7 110 1 124 -1 131 -16 4 -10 34 -96 66
-192 33 -95 63 -180 67 -188 5 -9 32 56 76 184 38 109 72 203 77 208 7 10 235
12 245 3z"/>
</g>
</svg>
