<?xml version="1.0" encoding="UTF-8"?>
<!DOCTYPE svg PUBLIC "-//W3C//DTD SVG 1.1//EN" "http://www.w3.org/Graphics/SVG/1.1/DTD/svg11.dtd">
<!-- Creator: CorelDRAW -->
<svg xmlns="http://www.w3.org/2000/svg" xml:space="preserve" width="8.4667mm" height="8.4667mm" version="1.1" style="shape-rendering:geometricPrecision; text-rendering:geometricPrecision; image-rendering:optimizeQuality; fill-rule:evenodd; clip-rule:evenodd"
viewBox="0 0 39.21 39.21"
 xmlns:xlink="http://www.w3.org/1999/xlink"
 xmlns:xodm="http://www.corel.com/coreldraw/odm/2003">
 <defs>
  <style type="text/css">
   <![CDATA[
    .fil0 {fill:none;fill-rule:nonzero}
    .fil1 {fill:black}
   ]]>
  </style>
 </defs>
 <g id="Capa_x0020_1">
  <metadata id="CorelCorpID_0Corel-Layer"/>
  <g id="_2573552557584">
   <path class="fil0" d="M0.03 0c-0.01,0 -0.01,0 -0.02,0.01 -0.01,0.01 -0.01,0.01 -0.01,0.02l0 39.16c0,0.01 0.01,0.03 0.03,0.03l39.16 0c0.01,0 0.01,-0 0.02,-0.01 0.01,-0.01 0.01,-0.01 0.01,-0.02l0 -39.16c0,-0.01 -0.01,-0.03 -0.03,-0.03l-39.16 0zm0 0z"/>
   <g>
    <path class="fil1" d="M19.52 26.4c0.6,0 1.13,0.24 1.52,0.63l0.03 0.03c0.37,0.39 0.6,0.92 0.6,1.49 0,0.6 -0.24,1.13 -0.63,1.52 -0.39,0.39 -0.93,0.63 -1.52,0.63 -0.6,0 -1.13,-0.24 -1.52,-0.63l-0.03 -0.03c-0.37,-0.39 -0.61,-0.92 -0.61,-1.5 0,-0.6 0.24,-1.13 0.63,-1.52 0.39,-0.39 0.93,-0.63 1.52,-0.63zm0.88 1.28c-0.22,-0.22 -0.53,-0.36 -0.88,-0.36 -0.34,-0 -0.65,0.14 -0.88,0.36 -0.22,0.22 -0.36,0.53 -0.36,0.88 0,0.33 0.13,0.64 0.34,0.86l0.02 0.02c0.22,0.22 0.53,0.36 0.88,0.36 0.34,0 0.65,-0.14 0.88,-0.36 0.22,-0.22 0.36,-0.53 0.36,-0.88 0,-0.33 -0.13,-0.63 -0.34,-0.86l-0.02 -0.02z"/>
    <path class="fil1" d="M11.99 23.74c0.12,0.22 0.03,0.5 -0.2,0.62 -0.22,0.12 -0.5,0.03 -0.62,-0.2 -0.4,-0.78 -0.75,-1.61 -1.01,-2.56 -0.25,-0.95 -0.4,-2.01 -0.4,-3.26 0,-2.72 1.1,-5.18 2.88,-6.96 1.78,-1.78 4.24,-2.88 6.96,-2.88 2.72,0 5.18,1.1 6.96,2.88l0 0 0 -0c1.78,1.78 2.88,4.24 2.88,6.96 0,1.24 -0.15,2.31 -0.4,3.26 -0.25,0.95 -0.6,1.78 -1.01,2.56 -0.11,0.22 -0.39,0.31 -0.62,0.2 -0.22,-0.12 -0.31,-0.39 -0.2,-0.62 0.37,-0.73 0.7,-1.5 0.93,-2.37 0.23,-0.88 0.37,-1.86 0.37,-3.03 0,-2.46 -1,-4.7 -2.61,-6.31l0 -0c-1.62,-1.61 -3.85,-2.61 -6.31,-2.61 -2.46,0 -4.7,1 -6.31,2.61 -1.61,1.61 -2.61,3.85 -2.61,6.31 0,1.16 0.14,2.15 0.37,3.03 0.23,0.87 0.56,1.65 0.93,2.37z"/>
    <path class="fil1" d="M11.51 23.5c0.25,-0.04 0.48,0.13 0.52,0.38 0.04,0.25 -0.13,0.48 -0.38,0.52l-1.21 0.2c-0.02,0.01 -0.04,0.01 -0.06,0.01 -0.79,0.12 -1.57,-0.09 -2.18,-0.52 -0.61,-0.44 -1.06,-1.1 -1.19,-1.9 -0.01,-0.02 -0.01,-0.04 -0.01,-0.06l-0.21 -1.29 -0 -0.02c-0.13,-0.8 0.08,-1.58 0.52,-2.2l0.03 -0.03c0.44,-0.6 1.11,-1.04 1.9,-1.17l0.01 -0 0.93 -0.15c0.25,-0.04 0.48,0.13 0.52,0.38 0.04,0.25 -0.13,0.48 -0.38,0.52l-0.9 0.15c-0.02,0.01 -0.04,0.01 -0.07,0.01 -0.53,0.1 -0.98,0.39 -1.28,0.8l-0.02 0.03c-0.3,0.42 -0.45,0.95 -0.37,1.5 0.01,0.02 0.01,0.04 0.01,0.07l0.21 1.27 0 0.02c0.09,0.55 0.4,1.02 0.83,1.33 0.43,0.3 0.97,0.45 1.52,0.36l0.02 -0 1.24 -0.2zm-4.51 -1.37c-0.02,-0.22 0.12,-0.43 0.34,-0.49l-0.34 0.49z"/>
    <path class="fil1" d="M27.56 24.4c-0.25,-0.04 -0.42,-0.28 -0.38,-0.52 0.04,-0.25 0.28,-0.42 0.52,-0.38l1.21 0.2c0.02,0 0.04,0.01 0.07,0.01 0.55,0.08 1.08,-0.06 1.5,-0.37 0.42,-0.3 0.73,-0.76 0.83,-1.3 0,-0.02 0.01,-0.05 0.01,-0.07l0.21 -1.25c0,-0.02 0.01,-0.04 0.01,-0.07 0.08,-0.55 -0.06,-1.08 -0.37,-1.5 -0.3,-0.42 -0.76,-0.73 -1.3,-0.83 -0.02,-0 -0.04,-0.01 -0.07,-0.01l-0.9 -0.15c-0.25,-0.04 -0.42,-0.28 -0.38,-0.52 0.04,-0.25 0.28,-0.42 0.52,-0.38l0.93 0.15 0.01 0c0.81,0.13 1.49,0.58 1.93,1.2 0.44,0.61 0.65,1.4 0.52,2.2l-0 0.01 -0.22 1.31 -0 0.01c-0.13,0.81 -0.58,1.49 -1.2,1.93 -0.61,0.44 -1.39,0.65 -2.2,0.52l-0.02 -0 -1.24 -0.2z"/>
    <path class="fil1" d="M21.27 28.86c-0.25,0.04 -0.48,-0.12 -0.53,-0.37 -0.04,-0.25 0.12,-0.48 0.37,-0.53 1.71,-0.31 3.25,-1.11 4.48,-2.25 1.22,-1.14 2.13,-2.62 2.56,-4.31 0.06,-0.25 0.31,-0.39 0.56,-0.33 0.25,0.06 0.39,0.31 0.33,0.56 -0.47,1.86 -1.47,3.5 -2.82,4.75 -1.35,1.26 -3.05,2.13 -4.94,2.48z"/>
    <path class="fil1" d="M19.61 10.92c2.05,0 3.91,0.83 5.25,2.17 1.34,1.34 2.17,3.2 2.17,5.25 0,2.05 -0.83,3.91 -2.17,5.25 -1.34,1.34 -3.2,2.17 -5.25,2.17 -2.05,0 -3.91,-0.83 -5.25,-2.17 -1.34,-1.34 -2.17,-3.2 -2.17,-5.25 0,-2.05 0.83,-3.91 2.17,-5.25 1.34,-1.34 3.2,-2.17 5.25,-2.17zm4.6 2.82c-1.18,-1.18 -2.81,-1.91 -4.6,-1.91 -1.8,0 -3.42,0.73 -4.6,1.91 -1.18,1.18 -1.91,2.81 -1.91,4.6 0,1.8 0.73,3.42 1.91,4.6 1.18,1.18 2.81,1.91 4.6,1.91 1.8,0 3.42,-0.73 4.6,-1.91 1.18,-1.18 1.91,-2.81 1.91,-4.6 0,-1.8 -0.73,-3.43 -1.91,-4.6z"/>
    <path class="fil1" d="M16.1 16.21c0,0.25 -0.21,0.46 -0.46,0.46 -0.25,0 -0.46,-0.21 -0.46,-0.46 0,-0.39 0.16,-0.75 0.42,-1.01 0.26,-0.26 0.62,-0.42 1.01,-0.42 0.39,0 0.75,0.16 1.01,0.42 0.26,0.26 0.42,0.62 0.42,1.01 0,0.25 -0.21,0.46 -0.46,0.46 -0.25,0 -0.46,-0.21 -0.46,-0.46 0,-0.14 -0.06,-0.27 -0.15,-0.36 -0.09,-0.09 -0.22,-0.15 -0.36,-0.15 -0.14,0 -0.27,0.06 -0.36,0.15 -0.09,0.09 -0.15,0.22 -0.15,0.36z"/>
    <path class="fil1" d="M22.09 16.21c0,0.25 -0.21,0.46 -0.46,0.46 -0.25,0 -0.46,-0.21 -0.46,-0.46 0,-0.39 0.16,-0.75 0.42,-1.01 0.26,-0.26 0.61,-0.42 1.01,-0.42 0.39,0 0.75,0.16 1.01,0.42 0.26,0.26 0.42,0.62 0.42,1.01 0,0.25 -0.21,0.46 -0.46,0.46 -0.25,0 -0.46,-0.21 -0.46,-0.46 0,-0.14 -0.06,-0.27 -0.15,-0.36 -0.09,-0.09 -0.22,-0.15 -0.36,-0.15 -0.14,0 -0.27,0.06 -0.36,0.15 -0.09,0.09 -0.15,0.22 -0.15,0.36z"/>
    <path class="fil1" d="M22.57 21.31c0.18,-0.18 0.47,-0.18 0.65,0 0.18,0.18 0.18,0.47 0,0.65 -0.48,0.48 -1.04,0.85 -1.66,1.11l0 0c-0.61,0.25 -1.28,0.39 -1.95,0.39 -0.68,0 -1.34,-0.13 -1.95,-0.39l-0.02 -0.01c-0.61,-0.26 -1.16,-0.63 -1.63,-1.1 -0.18,-0.18 -0.18,-0.47 0,-0.65 0.18,-0.18 0.47,-0.18 0.65,0 0.39,0.39 0.85,0.69 1.34,0.9l0.02 0.01c0.5,0.21 1.05,0.32 1.6,0.32 0.56,0 1.1,-0.11 1.6,-0.32l0 0 0 0c0.5,-0.21 0.96,-0.52 1.36,-0.91l0 0z"/>
   </g>
  </g>
 </g>
</svg>
