<?xml version="1.0" encoding="UTF-8"?>
<!DOCTYPE svg PUBLIC "-//W3C//DTD SVG 1.1//EN" "http://www.w3.org/Graphics/SVG/1.1/DTD/svg11.dtd">
<!-- Creator: CorelDRAW -->
<svg xmlns="http://www.w3.org/2000/svg" xml:space="preserve" width="5.5545mm" height="4.7961mm" version="1.1" style="shape-rendering:geometricPrecision; text-rendering:geometricPrecision; image-rendering:optimizeQuality; fill-rule:evenodd; clip-rule:evenodd"
viewBox="0 0 17.15 14.81"
 xmlns:xlink="http://www.w3.org/1999/xlink"
 xmlns:xodm="http://www.corel.com/coreldraw/odm/2003">
 <defs>
  <style type="text/css">
   <![CDATA[
    .fil0 {fill:#ED3237}
   ]]>
  </style>
 </defs>
 <g id="Capa_x0020_1">
  <metadata id="CorelCorpID_0Corel-Layer"/>
  <g id="_2434243724528">
   <path class="fil0" d="M8.52 11.93c0.4,0 0.76,0.16 1.02,0.42l0.02 0.02c0.25,0.26 0.4,0.61 0.4,1 0,0.4 -0.16,0.76 -0.42,1.02 -0.26,0.26 -0.62,0.42 -1.02,0.42 -0.4,0 -0.76,-0.16 -1.02,-0.42l-0.02 -0.02c-0.25,-0.26 -0.4,-0.61 -0.4,-1 0,-0.4 0.16,-0.76 0.42,-1.02 0.26,-0.26 0.62,-0.42 1.02,-0.42zm0.58 0.85c-0.15,-0.15 -0.36,-0.24 -0.58,-0.24 -0.23,-0 -0.44,0.09 -0.58,0.24 -0.15,0.15 -0.24,0.36 -0.24,0.58 0,0.22 0.09,0.42 0.23,0.57l0.01 0.01c0.15,0.15 0.36,0.24 0.58,0.24 0.23,0 0.44,-0.09 0.58,-0.24 0.15,-0.15 0.24,-0.36 0.24,-0.58 0,-0.22 -0.09,-0.42 -0.23,-0.57l-0.01 -0.01z"/>
   <path class="fil0" d="M3.5 10.16c0.08,0.15 0.02,0.33 -0.13,0.41 -0.15,0.08 -0.33,0.02 -0.41,-0.13 -0.27,-0.52 -0.5,-1.07 -0.67,-1.71 -0.17,-0.63 -0.27,-1.34 -0.27,-2.17 0,-1.81 0.73,-3.45 1.92,-4.64 1.19,-1.19 2.83,-1.92 4.64,-1.92 1.81,0 3.45,0.73 4.64,1.92l0 0 0 -0c1.19,1.19 1.92,2.83 1.92,4.64 0,0.83 -0.1,1.54 -0.27,2.17 -0.17,0.63 -0.4,1.19 -0.67,1.71 -0.08,0.15 -0.26,0.21 -0.41,0.13 -0.15,-0.08 -0.21,-0.26 -0.13,-0.41 0.25,-0.48 0.47,-1 0.62,-1.58 0.16,-0.58 0.25,-1.24 0.25,-2.02 0,-1.64 -0.67,-3.13 -1.74,-4.21l0 -0c-1.08,-1.08 -2.56,-1.74 -4.21,-1.74 -1.64,0 -3.13,0.67 -4.21,1.74 -1.08,1.08 -1.74,2.56 -1.74,4.21 0,0.78 0.09,1.43 0.25,2.02 0.16,0.58 0.37,1.1 0.62,1.58z"/>
   <path class="fil0" d="M3.18 10c0.17,-0.03 0.32,0.09 0.35,0.25 0.03,0.17 -0.09,0.32 -0.25,0.35l-0.81 0.13c-0.01,0 -0.03,0.01 -0.04,0.01 -0.53,0.08 -1.05,-0.06 -1.45,-0.35 -0.41,-0.29 -0.7,-0.74 -0.8,-1.27 -0,-0.01 -0.01,-0.03 -0.01,-0.04l-0.14 -0.86 -0 -0.01c-0.08,-0.53 0.05,-1.06 0.35,-1.46l0.02 -0.02c0.3,-0.4 0.74,-0.69 1.27,-0.78l0.01 -0 0.62 -0.1c0.17,-0.03 0.32,0.09 0.35,0.25 0.03,0.17 -0.09,0.32 -0.25,0.35l-0.6 0.1c-0.01,0 -0.03,0.01 -0.04,0.01 -0.35,0.06 -0.65,0.26 -0.86,0.53l-0.01 0.02c-0.2,0.28 -0.3,0.64 -0.24,1 0,0.01 0.01,0.03 0.01,0.05l0.14 0.85 0 0.01c0.06,0.37 0.27,0.68 0.56,0.89 0.28,0.2 0.64,0.3 1.01,0.24l0.01 -0 0.83 -0.14zm-3.01 -0.91c-0.01,-0.15 0.08,-0.29 0.23,-0.33l-0.23 0.33z"/>
   <path class="fil0" d="M13.88 10.6c-0.17,-0.03 -0.28,-0.18 -0.25,-0.35 0.03,-0.17 0.18,-0.28 0.35,-0.25l0.8 0.13c0.02,0 0.03,0 0.05,0.01 0.36,0.05 0.72,-0.04 1,-0.24 0.28,-0.2 0.49,-0.51 0.55,-0.87 0,-0.02 0,-0.03 0.01,-0.04l0.14 -0.84c0,-0.02 0,-0.03 0.01,-0.04 0.05,-0.36 -0.04,-0.72 -0.24,-1 -0.2,-0.28 -0.51,-0.49 -0.87,-0.55 -0.01,-0 -0.03,-0 -0.04,-0.01l-0.6 -0.1c-0.17,-0.03 -0.28,-0.18 -0.25,-0.35 0.03,-0.17 0.18,-0.28 0.35,-0.25l0.62 0.1 0.01 0c0.54,0.09 0.99,0.39 1.29,0.8 0.29,0.41 0.43,0.93 0.35,1.46l-0 0.01 -0.14 0.87 -0 0.01c-0.09,0.54 -0.39,0.99 -0.8,1.29 -0.41,0.29 -0.93,0.43 -1.46,0.35l-0.01 -0 -0.83 -0.14z"/>
   <path class="fil0" d="M9.69 13.57c-0.17,0.03 -0.32,-0.08 -0.35,-0.25 -0.03,-0.17 0.08,-0.32 0.25,-0.35 1.14,-0.21 2.17,-0.74 2.99,-1.5 0.81,-0.76 1.42,-1.75 1.7,-2.87 0.04,-0.16 0.21,-0.26 0.37,-0.22 0.16,0.04 0.26,0.21 0.22,0.37 -0.32,1.24 -0.98,2.33 -1.88,3.17 -0.9,0.84 -2.03,1.42 -3.29,1.65z"/>
   <path class="fil0" d="M8.58 1.61c1.37,0 2.6,0.55 3.5,1.45 0.9,0.9 1.45,2.13 1.45,3.5 0,1.37 -0.55,2.6 -1.45,3.5 -0.9,0.9 -2.13,1.45 -3.5,1.45 -1.37,0 -2.6,-0.55 -3.5,-1.45 -0.9,-0.9 -1.45,-2.13 -1.45,-3.5 0,-1.37 0.55,-2.6 1.45,-3.5 0.9,-0.9 2.13,-1.45 3.5,-1.45zm3.07 1.88c-0.78,-0.78 -1.87,-1.27 -3.07,-1.27 -1.2,0 -2.28,0.49 -3.07,1.27 -0.78,0.78 -1.27,1.87 -1.27,3.07 0,1.2 0.49,2.28 1.27,3.07 0.79,0.78 1.87,1.27 3.07,1.27 1.2,0 2.28,-0.49 3.07,-1.27 0.78,-0.78 1.27,-1.87 1.27,-3.07 0,-1.2 -0.49,-2.28 -1.27,-3.07z"/>
   <path class="fil0" d="M6.24 5.14c0,0.17 -0.14,0.31 -0.31,0.31 -0.17,0 -0.3,-0.14 -0.3,-0.31 0,-0.26 0.11,-0.5 0.28,-0.67 0.17,-0.17 0.41,-0.28 0.67,-0.28 0.26,0 0.5,0.11 0.67,0.28 0.17,0.17 0.28,0.41 0.28,0.67 0,0.17 -0.14,0.31 -0.31,0.31 -0.17,0 -0.31,-0.14 -0.31,-0.31 0,-0.09 -0.04,-0.18 -0.1,-0.24 -0.06,-0.06 -0.15,-0.1 -0.24,-0.1 -0.09,0 -0.18,0.04 -0.24,0.1 -0.06,0.06 -0.1,0.15 -0.1,0.24z"/>
   <path class="fil0" d="M10.23 5.14c0,0.17 -0.14,0.31 -0.31,0.31 -0.17,0 -0.31,-0.14 -0.31,-0.31 0,-0.26 0.11,-0.5 0.28,-0.67 0.17,-0.17 0.41,-0.28 0.67,-0.28 0.26,0 0.5,0.11 0.67,0.28 0.17,0.17 0.28,0.41 0.28,0.67 0,0.17 -0.14,0.31 -0.31,0.31 -0.17,0 -0.31,-0.14 -0.31,-0.31 0,-0.09 -0.04,-0.18 -0.1,-0.24 -0.06,-0.06 -0.15,-0.1 -0.24,-0.1 -0.09,0 -0.18,0.04 -0.24,0.1 -0.06,0.06 -0.1,0.15 -0.1,0.24z"/>
   <path class="fil0" d="M10.55 8.54c0.12,-0.12 0.31,-0.12 0.43,0 0.12,0.12 0.12,0.31 0,0.43 -0.32,0.32 -0.69,0.57 -1.1,0.74l0 0c-0.41,0.17 -0.85,0.26 -1.3,0.26 -0.45,0 -0.89,-0.09 -1.3,-0.26l-0.01 -0.01c-0.41,-0.17 -0.78,-0.42 -1.09,-0.73 -0.12,-0.12 -0.12,-0.31 0,-0.43 0.12,-0.12 0.31,-0.12 0.43,0 0.26,0.26 0.56,0.46 0.89,0.6l0.01 0.01c0.33,0.14 0.7,0.21 1.07,0.21 0.37,0 0.73,-0.07 1.07,-0.21l0 0 0 0c0.33,-0.14 0.64,-0.34 0.91,-0.61l0 0z"/>
  </g>
 </g>
</svg>
