<?xml version="1.0" encoding="UTF-8"?>
<!DOCTYPE svg PUBLIC "-//W3C//DTD SVG 1.1//EN" "http://www.w3.org/Graphics/SVG/1.1/DTD/svg11.dtd">
<!-- Creator: CorelDRAW -->
<svg xmlns="http://www.w3.org/2000/svg" xml:space="preserve" width="8.4667mm" height="8.4667mm" version="1.1" style="shape-rendering:geometricPrecision; text-rendering:geometricPrecision; image-rendering:optimizeQuality; fill-rule:evenodd; clip-rule:evenodd"
viewBox="0 0 43.68 43.68"
 xmlns:xlink="http://www.w3.org/1999/xlink"
 xmlns:xodm="http://www.corel.com/coreldraw/odm/2003">
 <defs>
  <style type="text/css">
   <![CDATA[
    .fil0 {fill:none;fill-rule:nonzero}
    .fil1 {fill:black;fill-rule:nonzero}
   ]]>
  </style>
 </defs>
 <g id="Capa_x0020_1">
  <metadata id="CorelCorpID_0Corel-Layer"/>
  <g id="_2572920859936">
   <path class="fil0" d="M0.03 0c-0.01,0 -0.02,0 -0.02,0.01 -0.01,0.01 -0.01,0.01 -0.01,0.02l0 43.62c0,0.02 0.01,0.03 0.03,0.03l43.62 0c0.01,0 0.02,-0 0.02,-0.01 0.01,-0.01 0.01,-0.01 0.01,-0.02l0 -43.62c0,-0.02 -0.01,-0.03 -0.03,-0.03l-43.62 0zm0 0z"/>
   <path class="fil1" d="M17.94 33.08c-0.47,-0.21 -0.82,-0.54 -1.04,-0.96l-0.19 -0.37 -0.49 0.02c-0.84,0.03 -1.53,-0.38 -1.91,-1.16 -0.21,-0.44 -0.22,-0.44 -0.59,-0.44 -0.97,-0 -1.87,-0.84 -1.99,-1.85 -0.04,-0.36 -0.07,-0.4 -0.3,-0.45 -0.66,-0.14 -1.28,-0.69 -1.53,-1.34 -0.2,-0.53 -0.14,-1.3 0.13,-1.72l0.21 -0.31 -0.58 -0.72c-0.84,-1.04 -0.78,-1.02 -1.13,-0.39 -0.25,0.44 -0.36,0.56 -0.65,0.69 -0.24,0.11 -0.44,0.14 -0.6,0.11 -0.26,-0.06 -2.65,-1.47 -2.93,-1.74 -0.09,-0.09 -0.22,-0.32 -0.27,-0.51 -0.08,-0.3 -0.08,-0.39 0.06,-0.7 0.09,-0.19 1.31,-2.39 2.71,-4.88 1.41,-2.49 2.68,-4.76 2.82,-5.03 0.15,-0.27 0.36,-0.57 0.47,-0.66 0.27,-0.21 0.68,-0.28 0.98,-0.18 0.4,0.14 2.65,1.55 2.85,1.79 0.3,0.36 0.33,0.73 0.09,1.25 -0.11,0.25 -0.2,0.46 -0.2,0.47 0,0.06 1.28,0.75 1.52,0.83 0.15,0.05 0.68,0.14 1.16,0.22l0.88 0.13 0.12 -0.19c0.59,-0.93 1.91,-1.29 5.34,-1.48 1.26,-0.07 2.39,0.05 4.16,0.45 0.79,0.17 1.6,0.32 1.81,0.32 0.31,0 0.84,-0.11 0.95,-0.21 0.01,-0.01 -0.07,-0.2 -0.18,-0.41 -0.26,-0.49 -0.27,-0.95 -0.03,-1.31 0.12,-0.18 0.63,-0.53 1.5,-1.07 1.51,-0.91 1.78,-1 2.24,-0.68 0.31,0.21 0.35,0.27 2.49,4.08 0.81,1.43 1.97,3.49 2.58,4.58 0.61,1.08 1.13,2.08 1.16,2.22 0.07,0.33 -0.08,0.75 -0.35,1 -0.3,0.27 -2.57,1.64 -2.83,1.7 -0.46,0.11 -0.99,-0.2 -1.28,-0.75 -0.3,-0.56 -0.25,-0.57 -0.93,0.09 -0.34,0.33 -0.78,0.71 -0.96,0.83 -0.33,0.22 -0.34,0.23 -0.22,0.45 0.07,0.13 0.12,0.44 0.12,0.69 -0,1.07 -0.74,1.9 -1.8,2.01l-0.41 0.04 -0.14 0.48c-0.19,0.63 -0.67,1.13 -1.27,1.31 -0.23,0.07 -0.51,0.13 -0.61,0.13 -0.15,0 -0.2,0.07 -0.27,0.34 -0.13,0.51 -0.45,1 -0.78,1.22 -0.18,0.12 -0.53,0.23 -0.9,0.29 -0.59,0.09 -0.61,0.11 -1.03,0.56 -1.06,1.16 -2.41,1.3 -4.89,0.51l-0.61 -0.2 -0.36 0.39c-0.2,0.22 -0.5,0.45 -0.66,0.52 -0.4,0.17 -1.07,0.15 -1.47,-0.03l0 -0zm1.35 -1.31c0.73,-0.9 1.18,-1.61 1.18,-1.86 0,-0.38 -0.3,-0.78 -0.7,-0.92 -0.29,-0.1 -0.35,-0.1 -0.53,0.02 -0.21,0.14 -1.28,1.53 -1.44,1.86 -0.23,0.5 0.31,1.25 0.9,1.25 0.27,0 0.35,-0.05 0.59,-0.34zm4.97 -0.07c0.17,-0.05 0.45,-0.22 0.63,-0.38l0.33 -0.29 -1.77 -0.86c-1.57,-0.76 -1.78,-0.88 -1.83,-1.08 -0.07,-0.28 0.1,-0.6 0.38,-0.69 0.18,-0.06 0.5,0.07 2.13,0.87 1.79,0.88 1.95,0.94 2.41,0.94 0.61,0.01 0.87,-0.14 1,-0.59 0.08,-0.27 0.08,-0.34 -0.02,-0.43 -0.06,-0.06 -1.02,-0.62 -2.12,-1.25 -1.1,-0.63 -2.07,-1.2 -2.15,-1.27 -0.22,-0.19 -0.18,-0.61 0.08,-0.82 0.13,-0.1 0.28,-0.15 0.38,-0.13 0.09,0.02 1.17,0.62 2.4,1.33 1.95,1.13 2.27,1.29 2.58,1.29 0.19,0 0.44,-0.04 0.56,-0.08 0.29,-0.11 0.54,-0.54 0.51,-0.88 -0.02,-0.27 -0.06,-0.3 -2.44,-1.73 -1.33,-0.8 -2.48,-1.5 -2.55,-1.56 -0.2,-0.17 -0.18,-0.69 0.05,-0.85 0.1,-0.07 0.24,-0.12 0.32,-0.12 0.08,0 1.37,0.74 2.88,1.65 2.47,1.48 2.78,1.64 3.1,1.64 0.3,0 0.4,-0.04 0.63,-0.27 0.22,-0.22 0.27,-0.34 0.27,-0.58 0,-0.52 -0.22,-0.75 -2.17,-2.24 -2.57,-1.97 -4.46,-3.2 -7.12,-4.64l-1.14 -0.62 -0.56 0.17c-0.31,0.09 -0.56,0.2 -0.56,0.24 0,0.15 -1.26,1.39 -1.76,1.72 -0.73,0.49 -1.6,0.77 -2.35,0.77 -1.03,0 -1.48,-0.41 -1.46,-1.34 0.01,-0.63 0.21,-1.06 1.09,-2.37l0.68 -1.02 -0.29 -0.05c-1.41,-0.24 -1.67,-0.33 -2.6,-0.9 -0.25,-0.16 -0.48,-0.27 -0.49,-0.25 -0.07,0.08 -3.82,6.75 -3.82,6.8 0,0.03 0.09,0.15 0.21,0.26 0.12,0.11 0.45,0.49 0.74,0.86l0.53 0.66 0.17 -0.16c0.48,-0.45 1.36,-0.54 2.03,-0.2 0.38,0.19 0.82,0.59 0.93,0.85 0.04,0.08 0.06,0.08 0.13,-0.03 0.42,-0.66 0.9,-0.95 1.61,-0.95 0.59,0 0.92,0.13 1.36,0.53 0.41,0.37 0.64,0.8 0.7,1.32 0.04,0.33 0.07,0.4 0.21,0.4 0.29,0 0.87,0.35 1.19,0.71 0.33,0.38 0.55,0.96 0.55,1.47 0,0.22 0.03,0.31 0.12,0.31 0.21,0 0.72,0.3 1,0.58 0.67,0.67 0.83,1.77 0.37,2.46l-0.22 0.33 0.18 0.07c0.2,0.08 1.43,0.38 1.75,0.43 0.4,0.07 0.93,0.05 1.23,-0.03zm-6.6 -2.6c1,-1.37 1.05,-1.46 1.01,-1.75 -0.07,-0.56 -0.7,-1 -1.18,-0.84 -0.2,0.07 -2.12,2.6 -2.27,2.98 -0.15,0.4 0.24,1.03 0.72,1.17 0.43,0.12 0.61,-0.05 1.72,-1.56zm-3.52 -0.14c0.07,-0.06 0.57,-0.71 1.11,-1.46 0.54,-0.75 1.11,-1.51 1.26,-1.68 0.32,-0.37 0.35,-0.74 0.11,-1.13 -0.22,-0.35 -0.73,-0.56 -1.02,-0.42 -0.12,0.06 -0.75,0.84 -1.48,1.82 -1.36,1.85 -1.43,1.99 -1.14,2.49 0.25,0.42 0.87,0.63 1.17,0.39zm-1.92 -2.25c0.27,-0.21 1.03,-1.37 1.03,-1.58 -0,-0.26 -0.25,-0.68 -0.51,-0.85 -0.12,-0.08 -0.32,-0.12 -0.51,-0.1 -0.28,0.02 -0.35,0.08 -0.81,0.69 -0.42,0.56 -0.5,0.72 -0.5,0.99 0,0.27 0.05,0.38 0.31,0.64 0.24,0.24 0.37,0.31 0.59,0.31 0.15,0 0.33,-0.04 0.4,-0.1zm20.34 -3.25c0.18,-0.12 0.64,-0.52 1.03,-0.89 0.7,-0.67 0.7,-0.67 0.58,-0.88 -0.07,-0.12 -0.93,-1.64 -1.91,-3.38 -0.98,-1.74 -1.79,-3.18 -1.8,-3.19 -0.01,-0.01 -0.28,0.05 -0.61,0.14 -0.75,0.2 -1.3,0.19 -2.21,-0.01 -2.81,-0.63 -3.35,-0.69 -5.24,-0.56 -1.53,0.1 -2.93,0.31 -3.39,0.51 -0.23,0.1 -0.49,0.41 -1.37,1.68 -1.34,1.91 -1.56,2.27 -1.63,2.67l-0.06 0.31 0.57 -0.04c1.01,-0.07 2.04,-0.74 2.95,-1.92 0.35,-0.46 0.36,-0.47 1.26,-0.75l0.9 -0.29 0.88 0.44c2.76,1.39 5.88,3.41 8.67,5.62 0.53,0.42 0.98,0.76 1.01,0.77 0.03,0 0.19,-0.1 0.37,-0.22zm-24.79 -0.96c0.17,-0.3 0.66,-1.16 1.08,-1.91 0.42,-0.75 1.54,-2.75 2.5,-4.45 0.95,-1.7 1.73,-3.1 1.73,-3.13 0,-0.03 -0.5,-0.36 -1.11,-0.74l-1.11 -0.69 -1.95 3.46c-3,5.32 -3.68,6.55 -3.68,6.61 0,0.06 2.07,1.36 2.18,1.38 0.03,0 0.2,-0.24 0.37,-0.54zm29.63 -0.12c0.61,-0.36 1.1,-0.68 1.1,-0.71 -0.09,-0.25 -5.65,-10.03 -5.7,-10.03 -0.05,0 -1.53,0.88 -2.12,1.27 -0.11,0.07 0.13,0.5 4.74,8.7 0.44,0.78 0.82,1.42 0.84,1.42 0.02,0 0.54,-0.3 1.15,-0.66zm0 0z"/>
  </g>
 </g>
</svg>
