<?xml version="1.0" encoding="UTF-8"?>
<!DOCTYPE svg PUBLIC "-//W3C//DTD SVG 1.1//EN" "http://www.w3.org/Graphics/SVG/1.1/DTD/svg11.dtd">
<!-- Creator: CorelDRAW -->
<svg xmlns="http://www.w3.org/2000/svg" xml:space="preserve" width="6.8981mm" height="4.4144mm" version="1.1" style="shape-rendering:geometricPrecision; text-rendering:geometricPrecision; image-rendering:optimizeQuality; fill-rule:evenodd; clip-rule:evenodd"
viewBox="0 0 29.27 18.73"
 xmlns:xlink="http://www.w3.org/1999/xlink"
 xmlns:xodm="http://www.corel.com/coreldraw/odm/2003">
 <defs>
  <style type="text/css">
   <![CDATA[
    .fil0 {fill:#ED3237;fill-rule:nonzero}
   ]]>
  </style>
 </defs>
 <g id="Capa_x0020_1">
  <metadata id="CorelCorpID_0Corel-Layer"/>
  <path class="fil0" d="M11.43 18.61c-0.39,-0.18 -0.68,-0.45 -0.85,-0.79l-0.15 -0.3 -0.4 0.02c-0.69,0.03 -1.26,-0.32 -1.57,-0.95 -0.18,-0.36 -0.18,-0.36 -0.48,-0.36 -0.8,-0 -1.54,-0.69 -1.64,-1.52 -0.04,-0.3 -0.06,-0.33 -0.24,-0.37 -0.54,-0.12 -1.05,-0.56 -1.26,-1.1 -0.17,-0.44 -0.12,-1.07 0.11,-1.41l0.17 -0.26 -0.48 -0.59c-0.69,-0.86 -0.64,-0.84 -0.93,-0.32 -0.2,0.36 -0.29,0.46 -0.54,0.57 -0.2,0.09 -0.36,0.12 -0.49,0.09 -0.21,-0.05 -2.18,-1.21 -2.41,-1.43 -0.08,-0.07 -0.18,-0.26 -0.22,-0.42 -0.07,-0.25 -0.06,-0.32 0.05,-0.57 0.07,-0.16 1.07,-1.97 2.23,-4.02 1.16,-2.05 2.2,-3.91 2.32,-4.14 0.12,-0.23 0.3,-0.47 0.39,-0.54 0.22,-0.17 0.56,-0.23 0.81,-0.15 0.33,0.11 2.18,1.28 2.34,1.47 0.25,0.29 0.27,0.6 0.07,1.03 -0.09,0.2 -0.17,0.38 -0.17,0.39 0,0.05 1.05,0.62 1.25,0.68 0.13,0.04 0.56,0.12 0.95,0.18l0.72 0.11 0.1 -0.16c0.49,-0.76 1.57,-1.06 4.39,-1.21 1.03,-0.05 1.96,0.04 3.42,0.37 0.65,0.14 1.32,0.26 1.49,0.26 0.26,0 0.69,-0.09 0.79,-0.17 0.01,-0.01 -0.06,-0.16 -0.15,-0.34 -0.22,-0.4 -0.22,-0.78 -0.02,-1.08 0.1,-0.14 0.51,-0.44 1.24,-0.88 1.24,-0.75 1.47,-0.82 1.85,-0.56 0.26,0.17 0.29,0.22 2.05,3.35 0.66,1.18 1.62,2.87 2.12,3.76 0.5,0.89 0.93,1.71 0.96,1.83 0.05,0.27 -0.07,0.62 -0.29,0.82 -0.24,0.22 -2.12,1.35 -2.33,1.4 -0.38,0.09 -0.81,-0.17 -1.05,-0.62 -0.25,-0.46 -0.21,-0.47 -0.77,0.07 -0.28,0.27 -0.64,0.58 -0.79,0.68 -0.27,0.18 -0.28,0.19 -0.18,0.37 0.05,0.1 0.1,0.36 0.1,0.57 -0,0.88 -0.61,1.56 -1.48,1.65l-0.34 0.03 -0.12 0.39c-0.15,0.52 -0.55,0.93 -1.04,1.07 -0.19,0.06 -0.42,0.1 -0.5,0.1 -0.12,0 -0.16,0.05 -0.22,0.28 -0.11,0.42 -0.37,0.82 -0.64,1.01 -0.15,0.1 -0.43,0.19 -0.74,0.24 -0.48,0.08 -0.5,0.09 -0.85,0.46 -0.87,0.95 -1.98,1.07 -4.03,0.42l-0.51 -0.16 -0.3 0.32c-0.17,0.18 -0.41,0.37 -0.54,0.43 -0.33,0.14 -0.88,0.13 -1.21,-0.02l0 -0zm1.11 -1.08c0.6,-0.74 0.97,-1.32 0.97,-1.53 0,-0.31 -0.25,-0.65 -0.57,-0.76 -0.24,-0.08 -0.29,-0.08 -0.44,0.01 -0.18,0.12 -1.06,1.26 -1.18,1.53 -0.19,0.41 0.25,1.02 0.74,1.02 0.22,0 0.29,-0.04 0.48,-0.28zm4.09 -0.05c0.14,-0.04 0.37,-0.18 0.52,-0.31l0.27 -0.24 -1.46 -0.71c-1.29,-0.62 -1.46,-0.73 -1.5,-0.89 -0.06,-0.23 0.08,-0.49 0.31,-0.57 0.15,-0.05 0.41,0.06 1.75,0.71 1.48,0.72 1.6,0.77 1.98,0.77 0.5,0.01 0.72,-0.12 0.82,-0.49 0.07,-0.22 0.06,-0.28 -0.01,-0.35 -0.05,-0.05 -0.84,-0.51 -1.74,-1.03 -0.91,-0.52 -1.7,-0.99 -1.77,-1.04 -0.18,-0.16 -0.15,-0.5 0.06,-0.67 0.11,-0.08 0.23,-0.13 0.31,-0.11 0.08,0.02 0.96,0.51 1.97,1.09 1.6,0.93 1.87,1.06 2.12,1.06 0.16,0 0.36,-0.03 0.46,-0.06 0.24,-0.09 0.44,-0.44 0.42,-0.72 -0.02,-0.22 -0.05,-0.25 -2,-1.42 -1.09,-0.66 -2.04,-1.23 -2.1,-1.28 -0.17,-0.14 -0.14,-0.57 0.04,-0.7 0.08,-0.06 0.2,-0.1 0.26,-0.1 0.06,0 1.13,0.61 2.37,1.35 2.03,1.22 2.28,1.35 2.55,1.35 0.25,0 0.33,-0.04 0.52,-0.22 0.18,-0.18 0.22,-0.28 0.22,-0.48 0,-0.43 -0.18,-0.62 -1.78,-1.84 -2.11,-1.62 -3.67,-2.63 -5.86,-3.81l-0.94 -0.51 -0.46 0.14c-0.26,0.08 -0.46,0.17 -0.46,0.19 0,0.13 -1.04,1.14 -1.44,1.41 -0.6,0.4 -1.31,0.63 -1.94,0.63 -0.85,0 -1.22,-0.34 -1.2,-1.1 0.01,-0.52 0.17,-0.87 0.9,-1.95l0.56 -0.84 -0.24 -0.04c-1.16,-0.2 -1.38,-0.27 -2.14,-0.74 -0.21,-0.13 -0.39,-0.22 -0.41,-0.21 -0.06,0.06 -3.14,5.55 -3.14,5.6 0,0.03 0.08,0.12 0.17,0.21 0.09,0.09 0.37,0.41 0.61,0.71l0.43 0.55 0.14 -0.13c0.39,-0.37 1.12,-0.44 1.67,-0.16 0.31,0.16 0.68,0.49 0.76,0.7 0.03,0.07 0.05,0.06 0.11,-0.02 0.35,-0.54 0.74,-0.78 1.32,-0.78 0.48,0 0.76,0.1 1.12,0.43 0.34,0.31 0.53,0.66 0.58,1.09 0.03,0.27 0.06,0.33 0.17,0.33 0.24,0 0.72,0.29 0.98,0.59 0.27,0.31 0.45,0.79 0.45,1.21 0,0.18 0.03,0.25 0.1,0.25 0.17,0 0.6,0.25 0.83,0.48 0.55,0.55 0.69,1.45 0.31,2.03l-0.18 0.27 0.15 0.06c0.17,0.06 1.18,0.31 1.44,0.36 0.33,0.05 0.76,0.04 1.01,-0.03zm-5.43 -2.14c0.83,-1.13 0.87,-1.2 0.83,-1.44 -0.06,-0.46 -0.58,-0.83 -0.97,-0.69 -0.16,0.06 -1.75,2.14 -1.87,2.45 -0.13,0.33 0.2,0.85 0.59,0.96 0.35,0.1 0.5,-0.04 1.41,-1.28zm-2.9 -0.12c0.06,-0.05 0.47,-0.59 0.91,-1.2 0.45,-0.62 0.91,-1.24 1.03,-1.38 0.26,-0.31 0.29,-0.6 0.09,-0.93 -0.18,-0.29 -0.6,-0.46 -0.84,-0.35 -0.1,0.05 -0.62,0.69 -1.22,1.5 -1.12,1.52 -1.18,1.64 -0.94,2.04 0.21,0.35 0.72,0.52 0.96,0.32zm-1.58 -1.85c0.22,-0.18 0.84,-1.13 0.84,-1.3 -0,-0.22 -0.21,-0.56 -0.42,-0.7 -0.1,-0.06 -0.26,-0.1 -0.42,-0.09 -0.23,0.02 -0.29,0.07 -0.66,0.57 -0.35,0.46 -0.41,0.59 -0.41,0.82 0,0.22 0.04,0.31 0.26,0.52 0.2,0.2 0.31,0.26 0.48,0.26 0.12,0 0.27,-0.04 0.33,-0.08zm16.74 -2.67c0.15,-0.1 0.53,-0.43 0.85,-0.73 0.58,-0.55 0.58,-0.55 0.48,-0.73 -0.06,-0.1 -0.76,-1.35 -1.57,-2.78 -0.81,-1.43 -1.47,-2.61 -1.48,-2.62 -0.01,-0.01 -0.23,0.04 -0.5,0.12 -0.62,0.16 -1.07,0.16 -1.82,-0.01 -2.31,-0.52 -2.75,-0.57 -4.31,-0.46 -1.26,0.09 -2.41,0.26 -2.79,0.42 -0.19,0.08 -0.4,0.34 -1.13,1.38 -1.1,1.58 -1.28,1.87 -1.34,2.2l-0.05 0.26 0.47 -0.03c0.83,-0.06 1.68,-0.61 2.43,-1.58 0.29,-0.38 0.3,-0.38 1.03,-0.62l0.74 -0.24 0.73 0.36c2.27,1.14 4.84,2.81 7.13,4.62 0.44,0.35 0.81,0.63 0.83,0.63 0.02,0 0.16,-0.08 0.31,-0.18zm-20.39 -0.79c0.14,-0.24 0.54,-0.95 0.89,-1.57 0.35,-0.62 1.27,-2.26 2.05,-3.66 0.78,-1.39 1.43,-2.55 1.43,-2.58 0,-0.02 -0.41,-0.3 -0.92,-0.61l-0.92 -0.57 -1.6 2.85c-2.47,4.37 -3.03,5.39 -3.03,5.44 0,0.05 1.71,1.12 1.8,1.13 0.03,0 0.16,-0.2 0.31,-0.44zm24.37 -0.1c0.5,-0.3 0.91,-0.56 0.9,-0.58 -0.07,-0.2 -4.65,-8.25 -4.69,-8.25 -0.04,0 -1.26,0.73 -1.75,1.05 -0.09,0.06 0.11,0.42 3.9,7.16 0.36,0.64 0.67,1.17 0.69,1.17 0.02,0 0.44,-0.24 0.95,-0.54zm0 0z"/>
 </g>
</svg>
