<?xml version="1.0" encoding="UTF-8"?>
<!DOCTYPE svg PUBLIC "-//W3C//DTD SVG 1.1//EN" "http://www.w3.org/Graphics/SVG/1.1/DTD/svg11.dtd">
<!-- Creator: CorelDRAW -->
<svg xmlns="http://www.w3.org/2000/svg" xml:space="preserve" width="8.4667mm" height="8.4667mm" version="1.1" style="shape-rendering:geometricPrecision; text-rendering:geometricPrecision; image-rendering:optimizeQuality; fill-rule:evenodd; clip-rule:evenodd"
viewBox="0 0 35.58 35.58"
 xmlns:xlink="http://www.w3.org/1999/xlink"
 xmlns:xodm="http://www.corel.com/coreldraw/odm/2003">
 <defs>
  <style type="text/css">
   <![CDATA[
    .fil0 {fill:none;fill-rule:nonzero}
    .fil1 {fill:black;fill-rule:nonzero}
   ]]>
  </style>
 </defs>
 <g id="Capa_x0020_1">
  <metadata id="CorelCorpID_0Corel-Layer"/>
  <g id="_2572928266032">
   <path class="fil0" d="M0.02 0c-0.01,0 -0.01,0 -0.02,0.01 -0,0 -0.01,0.01 -0.01,0.02l0 35.53c0,0.01 0.01,0.02 0.02,0.02l35.53 0c0.01,0 0.01,-0 0.02,-0.01 0,-0 0.01,-0.01 0.01,-0.02l0 -35.53c0,-0.01 -0.01,-0.02 -0.02,-0.02l-35.53 0zm0 0z"/>
   <path class="fil1" d="M28.01 22.3c-0.45,0.1 -0.8,0.45 -0.9,0.9l0 0c0.11,0.04 0.21,0.05 0.33,0.05l0.09 0c0.07,-0.26 0.28,-0.47 0.54,-0.54l0 -0.09c0,-0.11 -0.02,-0.22 -0.05,-0.33l0 0zm0.52 0c-0.04,0.11 -0.05,0.21 -0.05,0.33l0 0.09c0.26,0.07 0.47,0.28 0.54,0.54l0 0 0.09 0 0 -0c0.11,0 0.22,-0.02 0.33,-0.05l0 0c-0.1,-0.45 -0.45,-0.8 -0.9,-0.9l-0 0zm-0.26 0.71c0.25,0 0.44,0.2 0.44,0.44 0,0.24 -0.2,0.44 -0.44,0.44 -0.24,0 -0.44,-0.2 -0.44,-0.44 0,-0.24 0.2,-0.44 0.44,-0.44zm0.74 0.65c-0.07,0.26 -0.28,0.47 -0.54,0.54l0 0.09c0,0.11 0.02,0.22 0.05,0.33 0.45,-0.1 0.8,-0.45 0.9,-0.9l0 0c-0.11,-0.04 -0.21,-0.05 -0.33,-0.05l-0.09 0 0 -0zm-1.49 0l-0.09 0c-0.11,0 -0.22,0.02 -0.33,0.05l0 0c0.1,0.45 0.45,0.8 0.9,0.9 0.04,-0.11 0.05,-0.21 0.05,-0.33l0 -0.09c-0.26,-0.07 -0.47,-0.28 -0.54,-0.54zm0.74 -1.39c-0.06,0 -0.12,0 -0.18,0.01l0 0c0.06,0.13 0.08,0.27 0.08,0.41l0 0.12c0,0.02 -0.02,0.04 -0.04,0.05 -0.23,0.05 -0.42,0.24 -0.47,0.47 -0.01,0.02 -0.02,0.04 -0.05,0.04l-0.12 0 0 0c-0.14,0 -0.28,-0.03 -0.41,-0.08l0 0c-0.01,0.06 -0.01,0.12 -0.01,0.18 0,0.06 0,0.12 0.01,0.18 0.13,-0.06 0.27,-0.08 0.41,-0.08l0 0 0.12 0c0.02,0 0.04,0.02 0.05,0.04 0.05,0.23 0.23,0.42 0.47,0.47 0.02,0 0.04,0.02 0.04,0.05l0 0.12c0,0.14 -0.03,0.28 -0.08,0.41l0 0c0.06,0.01 0.12,0.01 0.18,0.01 0.06,0 0.12,-0 0.18,-0.01l0 0c-0.06,-0.13 -0.08,-0.27 -0.08,-0.41l0 -0.12c0,-0.02 0.02,-0.04 0.04,-0.05 0.23,-0.05 0.42,-0.24 0.47,-0.47 0,-0.02 0.02,-0.04 0.05,-0.04l0.12 0c0.14,0 0.28,0.03 0.41,0.08 0.01,-0.06 0.01,-0.12 0.01,-0.18 0,-0.06 -0,-0.12 -0.01,-0.18l0 0c-0.13,0.06 -0.27,0.08 -0.41,0.08l-0.12 0c-0.02,0 -0.04,-0.02 -0.05,-0.04 -0.05,-0.23 -0.23,-0.42 -0.47,-0.47 -0.02,-0 -0.04,-0.02 -0.04,-0.05l0 -0.12c0,-0.14 0.03,-0.28 0.08,-0.41l0 0c-0.06,-0.01 -0.12,-0.01 -0.18,-0.01l0 0 0 0c0,0 0,0 0,0zm0 -0.53c0.95,0 1.72,0.77 1.72,1.72 0,0.95 -0.77,1.72 -1.72,1.72 -0.95,0 -1.72,-0.77 -1.72,-1.72 0,-0.95 0.77,-1.72 1.72,-1.72zm0 0z"/>
   <path class="fil1" d="M12.63 22.3c-0.45,0.1 -0.8,0.45 -0.9,0.9l0 0c0.11,0.04 0.21,0.05 0.33,0.05l0.09 0c0.07,-0.26 0.28,-0.47 0.54,-0.54l0 -0.09c0,-0.11 -0.02,-0.22 -0.05,-0.33l-0 0zm0.52 0c-0.04,0.11 -0.05,0.21 -0.05,0.33l0 0.09c0.26,0.07 0.47,0.28 0.54,0.54l0 0 0.09 0 0 -0 0 0c0.11,0 0.22,-0.02 0.33,-0.05l0 0c-0.1,-0.45 -0.45,-0.8 -0.9,-0.9l0 0zm-0.26 0.71c0.24,0 0.44,0.2 0.44,0.44 0,0.24 -0.2,0.44 -0.44,0.44 -0.24,0 -0.44,-0.2 -0.44,-0.44 0,-0.24 0.2,-0.44 0.44,-0.44zm0.74 0.65c-0.07,0.26 -0.28,0.47 -0.54,0.54l0 0.09c0,0.11 0.02,0.22 0.05,0.33 0.45,-0.1 0.8,-0.45 0.9,-0.9 -0.11,-0.04 -0.22,-0.05 -0.33,-0.05l-0.09 0 0 -0zm-1.49 0l-0.09 0c-0.11,0 -0.22,0.02 -0.33,0.05 0.1,0.45 0.45,0.8 0.9,0.9 0.04,-0.11 0.05,-0.21 0.05,-0.33l0 -0.09c-0.26,-0.07 -0.47,-0.28 -0.54,-0.54zm0.74 -1.39c-0.06,0 -0.12,0 -0.18,0.01l0 0c0.06,0.13 0.08,0.27 0.08,0.41l0 0.12c0,0.02 -0.02,0.04 -0.04,0.05 -0.23,0.05 -0.42,0.24 -0.47,0.47 -0,0.02 -0.02,0.04 -0.05,0.04l-0.12 0 0 0c-0.14,0 -0.28,-0.03 -0.41,-0.08l-0 0c-0.01,0.06 -0.01,0.12 -0.01,0.18 0,0.06 0,0.12 0.01,0.18 0.13,-0.06 0.27,-0.08 0.41,-0.08l0 0 0.12 0c0.02,0 0.04,0.02 0.05,0.04 0.05,0.23 0.24,0.42 0.47,0.47 0.02,0 0.04,0.02 0.04,0.05l0 0.12c0,0.14 -0.03,0.28 -0.08,0.41 0.06,0.01 0.12,0.01 0.18,0.01 0.06,0 0.12,-0 0.18,-0.01 -0.06,-0.13 -0.08,-0.27 -0.08,-0.41l0 -0.12c0,-0.02 0.02,-0.04 0.04,-0.05 0.23,-0.05 0.42,-0.24 0.47,-0.47 0,-0.02 0.02,-0.04 0.05,-0.04l0.12 0c0.14,0 0.28,0.03 0.41,0.08 0.01,-0.06 0.01,-0.12 0.01,-0.18 0,-0.06 -0,-0.12 -0.01,-0.18l-0 0c-0.13,0.06 -0.27,0.08 -0.41,0.08l-0.12 0c-0.02,0 -0.04,-0.02 -0.05,-0.04 -0.05,-0.23 -0.24,-0.42 -0.47,-0.47 -0.02,-0 -0.04,-0.02 -0.04,-0.05l0 -0.12c0,-0.14 0.03,-0.28 0.08,-0.41l0 0c-0.06,-0.01 -0.12,-0.01 -0.18,-0.01l0 0c0,0 0,0 0,0zm0 -0.53c0.95,0 1.72,0.77 1.72,1.72 0,0.95 -0.77,1.72 -1.72,1.72 -0.95,0 -1.72,-0.77 -1.72,-1.72 0,-0.95 0.77,-1.72 1.72,-1.72zm0 0z"/>
   <path class="fil1" d="M7.74 22.3c-0.45,0.1 -0.8,0.45 -0.9,0.9l0 0c0.11,0.04 0.21,0.05 0.33,0.05l0.09 0c0.07,-0.26 0.28,-0.47 0.54,-0.54l0 -0.09c0,-0.11 -0.02,-0.22 -0.05,-0.33zm0.52 0c-0.04,0.11 -0.05,0.21 -0.05,0.33l0 0.09c0.26,0.07 0.47,0.28 0.54,0.54l0 0 0.09 0 0 -0c0.11,0 0.22,-0.02 0.33,-0.05l0 0c-0.1,-0.45 -0.45,-0.8 -0.9,-0.9l0 0zm-0.26 0.71c0.24,0 0.44,0.2 0.44,0.44 0,0.24 -0.2,0.44 -0.44,0.44 -0.24,0 -0.44,-0.2 -0.44,-0.44 0,-0.24 0.2,-0.44 0.44,-0.44zm0.74 0.65c-0.07,0.26 -0.28,0.47 -0.54,0.54l0 0.09c0,0.11 0.02,0.22 0.05,0.33 0.45,-0.1 0.8,-0.45 0.9,-0.9l0 0c-0.11,-0.04 -0.21,-0.05 -0.33,-0.05l-0.09 0 0 -0zm-1.49 0l-0.09 0c-0.11,0 -0.22,0.02 -0.33,0.05 0.1,0.45 0.45,0.8 0.9,0.9 0.04,-0.11 0.05,-0.21 0.05,-0.33l0 -0.09c-0.26,-0.07 -0.47,-0.28 -0.54,-0.54zm0.74 -1.39c-0.06,0 -0.12,0 -0.18,0.01l0 0c0.06,0.13 0.08,0.27 0.08,0.41l0 0.12c0,0.02 -0.02,0.04 -0.04,0.05 -0.23,0.05 -0.42,0.24 -0.47,0.47 -0,0.02 -0.02,0.04 -0.05,0.04l-0.12 0 0 0c-0.14,0 -0.28,-0.03 -0.41,-0.08 -0.01,0.06 -0.01,0.12 -0.01,0.18 0,0.06 0,0.12 0.01,0.18 0.13,-0.06 0.27,-0.08 0.41,-0.08l0 0 0.12 0c0.02,0 0.04,0.02 0.05,0.04 0.05,0.23 0.24,0.42 0.47,0.47 0.02,0 0.04,0.02 0.04,0.05l0 0.12c0,0.14 -0.03,0.28 -0.08,0.41l0 0c0.06,0.01 0.12,0.01 0.18,0.01 0.06,0 0.12,-0 0.18,-0.01 -0.06,-0.13 -0.08,-0.27 -0.08,-0.41l0 -0.12c0,-0.02 0.02,-0.04 0.04,-0.05 0.23,-0.05 0.42,-0.24 0.47,-0.47 0,-0.02 0.02,-0.04 0.05,-0.04l0.12 0c0.14,0 0.28,0.03 0.41,0.08 0.01,-0.06 0.01,-0.12 0.01,-0.18 0,-0.06 -0.01,-0.12 -0.01,-0.18 -0.13,0.06 -0.27,0.08 -0.41,0.08l-0.12 0c-0.02,0 -0.04,-0.02 -0.05,-0.04 -0.05,-0.23 -0.24,-0.42 -0.47,-0.47 -0.02,-0 -0.04,-0.02 -0.04,-0.05l0 -0.12c0,-0.14 0.03,-0.28 0.08,-0.41 -0.06,-0.01 -0.12,-0.01 -0.18,-0.01l0 0c0,0 0,0 0,0zm0 -0.53c0.95,0 1.72,0.77 1.72,1.72 0,0.95 -0.77,1.72 -1.72,1.72 -0.95,0 -1.72,-0.77 -1.72,-1.72 0,-0.95 0.77,-1.72 1.72,-1.72zm0 0z"/>
   <path class="fil1" d="M27.79 15.78l-1.47 0c-0.04,0 -0.07,0.03 -0.07,0.07l0 1.76c0,0.04 0.03,0.07 0.07,0.07l0 0c0.39,0 0.78,0 1.17,0l0.29 0c0.02,0 0.04,-0.01 0.05,-0.02 0.01,-0.01 0.02,-0.03 0.02,-0.05l0 -1.76c0,-0.02 -0.01,-0.04 -0.02,-0.05 -0.01,-0.01 -0.03,-0.02 -0.05,-0.02zm3.61 0l-3.08 0c-0.04,0 -0.07,0.03 -0.07,0.07l0 1.76c0,0.04 0.03,0.07 0.07,0.07l0 0c0.82,0 1.64,0 2.46,0l0.62 0 0 -0.16 -0.38 0c-0.02,0 -0.04,-0.02 -0.04,-0.04l0 -1.18c0,-0.02 0.02,-0.04 0.04,-0.04l0.38 0 0 -0.47zm0.36 0l-0.22 0 0 1.9 0 0c0.08,0 0.16,0 0.25,0 0.02,0 0.04,-0.01 0.05,-0.02 0.01,-0.01 0.02,-0.03 0.02,-0.05l-0.02 -1.76c-0,-0.04 -0.03,-0.07 -0.07,-0.07zm-3.1 2.15c-0.11,0 -0.2,0.01 -0.27,0.03 -0.07,0.02 -0.11,0.04 -0.11,0.07l0 0.01c0.02,0.03 0.06,0.05 0.14,0.07 0.07,0.01 0.14,0.02 0.23,0.02 0.02,0 0.03,-0 0.05,-0 0.1,-0 0.19,-0.02 0.25,-0.04 0.02,-0.01 0.04,-0.02 0.05,-0.02l0.02 -0.01c0.01,-0.01 0.01,-0.02 0.01,-0.03 -0,-0.03 -0.04,-0.05 -0.11,-0.07 -0.07,-0.02 -0.16,-0.03 -0.27,-0.03zm-25.39 3.03l0 0.17 0.21 0 0 -0.14c0,-0.02 -0.02,-0.03 -0.04,-0.03l-0.17 0zm28.56 -0.98c-0.01,0 -0.02,0 -0.02,0 -0.02,0.01 -0.03,0.02 -0.04,0.04 -0.07,0.38 -0.13,0.76 -0.2,1.14 -0,0.02 0.01,0.05 0.02,0.06 0.12,0.09 0.25,0.18 0.39,0.28l0.05 0.03 0.02 -1.42 -0.18 -0.13c-0.01,-0.01 -0.02,-0.01 -0.03,-0.01zm-28.56 1.22l0 0.41 0.17 0c0.02,0 0.04,-0.02 0.04,-0.04l0 -0.37 -0.21 0zm-0.08 0.69l-0.02 0.18 0.4 0c0.01,0 0.02,-0.01 0.02,-0.02l0 -0.15c0,-0.01 -0.01,-0.02 -0.02,-0.02l-0.38 0zm21.16 -9.86c0.08,0 0.15,0.03 0.2,0.08 0.05,0.05 0.08,0.13 0.08,0.2 0,2.72 0,5.44 0,8.15 0,0.08 -0.03,0.15 -0.08,0.2 -0.02,0.02 -0.04,0.03 -0.06,0.05l-0 0c0.33,0 0.67,0 1,0 0,-2.42 0,-4.84 0,-7.26 2.4,0.17 3.94,0.38 4.63,0.57 0.78,0.21 1.45,0.59 1.97,1.21l0.02 0.45 -0.18 0.08 0.03 1.96 0.21 0.21 -0.04 3.66 0.26 0.23 0.03 1.09 -2.02 -0.25 -0.21 0.1c-0.09,-0.99 -0.92,-1.76 -1.93,-1.76 -1.07,0 -1.94,0.87 -1.94,1.94 0,0.01 0,0.01 0,0.02l-0.43 0 0 0 0 0.22c0,0.22 -0.18,0.4 -0.4,0.4 -1.18,0 -2.37,0 -3.55,0 -0.22,0 -0.4,-0.18 -0.4,-0.4l0 -0.06c-0.7,0 -1.39,0 -2.09,0l-0.85 0 0 0.23c0,0.06 -0.05,0.12 -0.12,0.12l-1.09 0c-0.06,0 -0.12,-0.05 -0.12,-0.12l0 -0.03c-0.67,0 -1.35,0 -2.02,0 0,-0.07 0,-0.13 0,-0.19l-0.44 0c0.01,-0.06 0.01,-0.12 0.01,-0.18 0,-1.07 -0.87,-1.94 -1.94,-1.94 -1.07,0 -1.94,0.87 -1.94,1.94 0,0.01 0,0.01 0,0.02l0 0c-0.34,0 -0.68,0 -1.02,0 0,-0.01 0,-0.01 0,-0.02 0,-1.07 -0.87,-1.94 -1.94,-1.94 -1.07,0 -1.94,0.87 -1.94,1.94 0,0.01 0,0.01 0,0.02l-1.07 0 0 0 -1.83 -0.8 0.03 -0.31 0.07 -0.02 -0 -1.09c0.05,0 0.09,0 0.14,0l0 0c-0.09,-0.05 -0.15,-0.14 -0.15,-0.25l0 -8.15c0,-0.16 0.13,-0.28 0.28,-0.28l10.41 0 10.41 0zm0 0z"/>
  </g>
 </g>
</svg>
