<?xml version="1.0" encoding="UTF-8"?>
<!DOCTYPE svg PUBLIC "-//W3C//DTD SVG 1.1//EN" "http://www.w3.org/Graphics/SVG/1.1/DTD/svg11.dtd">
<!-- Creator: CorelDRAW -->
<svg xmlns="http://www.w3.org/2000/svg" xml:space="preserve" width="6.9676mm" height="3.1305mm" version="1.1" style="shape-rendering:geometricPrecision; text-rendering:geometricPrecision; image-rendering:optimizeQuality; fill-rule:evenodd; clip-rule:evenodd"
viewBox="0 0 24.27 10.91"
 xmlns:xlink="http://www.w3.org/1999/xlink"
 xmlns:xodm="http://www.corel.com/coreldraw/odm/2003">
 <defs>
  <style type="text/css">
   <![CDATA[
    .fil0 {fill:#ED3237;fill-rule:nonzero}
   ]]>
  </style>
 </defs>
 <g id="Capa_x0020_1">
  <metadata id="CorelCorpID_0Corel-Layer"/>
  <g id="_2435193800032">
   <path class="fil0" d="M20.61 8.52c-0.37,0.08 -0.66,0.38 -0.75,0.75l0 0c0.09,0.03 0.18,0.04 0.27,0.04l0.07 0c0.06,-0.22 0.23,-0.39 0.45,-0.45l0 -0.07c0,-0.09 -0.01,-0.18 -0.04,-0.27l0 0zm0.43 0c-0.03,0.09 -0.04,0.18 -0.04,0.27l0 0.07c0.22,0.06 0.39,0.23 0.45,0.45l0 0 0.07 0 0 -0c0.09,0 0.18,-0.01 0.27,-0.04l0 0c-0.08,-0.37 -0.38,-0.66 -0.75,-0.75l-0 0zm-0.21 0.59c0.2,0 0.37,0.17 0.37,0.37 0,0.2 -0.17,0.37 -0.37,0.37 -0.2,0 -0.37,-0.17 -0.37,-0.37 0,-0.2 0.17,-0.37 0.37,-0.37zm0.62 0.54c-0.06,0.22 -0.23,0.39 -0.45,0.45l0 0.07c0,0.09 0.01,0.18 0.04,0.27 0.37,-0.08 0.66,-0.38 0.75,-0.75l0 0c-0.09,-0.03 -0.18,-0.04 -0.27,-0.04l-0.07 0 0 -0zm-1.23 0l-0.07 0c-0.09,0 -0.18,0.01 -0.27,0.04l0 0c0.08,0.37 0.38,0.66 0.75,0.75 0.03,-0.09 0.04,-0.18 0.04,-0.27l0 -0.07c-0.22,-0.06 -0.39,-0.23 -0.45,-0.45zm0.62 -1.15c-0.05,0 -0.1,0 -0.15,0.01l0 0c0.05,0.11 0.07,0.22 0.07,0.34l0 0.1c0,0.02 -0.01,0.03 -0.03,0.04 -0.19,0.04 -0.35,0.2 -0.39,0.39 -0,0.02 -0.02,0.03 -0.04,0.03l-0.1 0 0 0c-0.12,0 -0.23,-0.02 -0.34,-0.07l0 0c-0.01,0.05 -0.01,0.1 -0.01,0.15 0,0.05 0,0.1 0.01,0.15 0.11,-0.05 0.22,-0.07 0.34,-0.07l0 0 0.1 0c0.02,0 0.03,0.01 0.04,0.03 0.04,0.19 0.19,0.35 0.39,0.39 0.02,0 0.03,0.02 0.03,0.04l0 0.1c0,0.12 -0.02,0.23 -0.07,0.34l0 0c0.05,0.01 0.1,0.01 0.15,0.01 0.05,0 0.1,-0 0.15,-0.01l0 0c-0.05,-0.11 -0.07,-0.22 -0.07,-0.34l0 -0.1c0,-0.02 0.01,-0.03 0.03,-0.04 0.19,-0.04 0.35,-0.2 0.39,-0.39 0,-0.02 0.02,-0.03 0.04,-0.03l0.1 0c0.12,0 0.23,0.02 0.34,0.07 0.01,-0.05 0.01,-0.1 0.01,-0.15 0,-0.05 -0,-0.1 -0.01,-0.15l0 0c-0.11,0.05 -0.22,0.07 -0.34,0.07l-0.1 0c-0.02,0 -0.03,-0.01 -0.04,-0.03 -0.04,-0.19 -0.19,-0.35 -0.39,-0.39 -0.02,-0 -0.03,-0.02 -0.03,-0.04l0 -0.1c0,-0.12 0.02,-0.23 0.07,-0.34l0 0c-0.05,-0.01 -0.1,-0.01 -0.15,-0.01l0 0 0 0c0,0 0,0 0,0zm0 -0.44c0.79,0 1.42,0.64 1.42,1.42 0,0.79 -0.64,1.42 -1.42,1.42 -0.79,0 -1.42,-0.64 -1.42,-1.42 0,-0.79 0.64,-1.42 1.42,-1.42zm0 0z"/>
   <path class="fil0" d="M7.86 8.52c-0.37,0.08 -0.66,0.38 -0.75,0.75l0 0c0.09,0.03 0.18,0.04 0.27,0.04l0.07 0c0.06,-0.22 0.23,-0.39 0.45,-0.45l0 -0.07c0,-0.09 -0.01,-0.18 -0.04,-0.27l-0 0zm0.43 0c-0.03,0.09 -0.04,0.18 -0.04,0.27l0 0.07c0.22,0.06 0.39,0.23 0.45,0.45l0 0 0.07 0 0 -0 0 0c0.09,0 0.18,-0.01 0.27,-0.04l0 0c-0.08,-0.37 -0.38,-0.66 -0.75,-0.75l0 0zm-0.21 0.59c0.2,0 0.37,0.17 0.37,0.37 0,0.2 -0.17,0.37 -0.37,0.37 -0.2,0 -0.37,-0.17 -0.37,-0.37 0,-0.2 0.17,-0.37 0.37,-0.37zm0.62 0.54c-0.06,0.22 -0.23,0.39 -0.45,0.45l0 0.07c0,0.09 0.01,0.18 0.04,0.27 0.37,-0.08 0.66,-0.38 0.75,-0.75 -0.09,-0.03 -0.18,-0.04 -0.27,-0.04l-0.07 0 0 -0zm-1.23 0l-0.07 0c-0.09,0 -0.18,0.01 -0.27,0.04 0.08,0.37 0.38,0.66 0.75,0.75 0.03,-0.09 0.04,-0.18 0.04,-0.27l0 -0.07c-0.22,-0.06 -0.39,-0.23 -0.45,-0.45zm0.62 -1.15c-0.05,0 -0.1,0 -0.15,0.01l0 0c0.05,0.11 0.07,0.22 0.07,0.34l0 0.1c0,0.02 -0.01,0.03 -0.03,0.04 -0.19,0.04 -0.35,0.2 -0.39,0.39 -0,0.02 -0.02,0.03 -0.04,0.03l-0.1 0 0 0c-0.12,0 -0.23,-0.02 -0.34,-0.07l-0 0c-0.01,0.05 -0.01,0.1 -0.01,0.15 0,0.05 0,0.1 0.01,0.15 0.11,-0.05 0.22,-0.07 0.34,-0.07l0 0 0.1 0c0.02,0 0.03,0.01 0.04,0.03 0.04,0.19 0.2,0.35 0.39,0.39 0.02,0 0.03,0.02 0.03,0.04l0 0.1c0,0.12 -0.02,0.23 -0.07,0.34 0.05,0.01 0.1,0.01 0.15,0.01 0.05,0 0.1,-0 0.15,-0.01 -0.05,-0.11 -0.07,-0.22 -0.07,-0.34l0 -0.1c0,-0.02 0.01,-0.03 0.03,-0.04 0.19,-0.04 0.35,-0.2 0.39,-0.39 0,-0.02 0.02,-0.03 0.04,-0.03l0.1 0c0.12,0 0.23,0.02 0.34,0.07 0.01,-0.05 0.01,-0.1 0.01,-0.15 0,-0.05 -0,-0.1 -0.01,-0.15l-0 0c-0.11,0.05 -0.22,0.07 -0.34,0.07l-0.1 0c-0.02,0 -0.03,-0.01 -0.04,-0.03 -0.04,-0.19 -0.2,-0.35 -0.39,-0.39 -0.02,-0 -0.03,-0.02 -0.03,-0.04l0 -0.1c0,-0.12 0.02,-0.23 0.07,-0.34l0 0c-0.05,-0.01 -0.1,-0.01 -0.15,-0.01l0 0c0,0 0,0 0,0zm0 -0.44c0.79,0 1.42,0.64 1.42,1.42 0,0.79 -0.64,1.42 -1.42,1.42 -0.79,0 -1.42,-0.64 -1.42,-1.42 0,-0.79 0.64,-1.42 1.42,-1.42zm0 0z"/>
   <path class="fil0" d="M3.8 8.52c-0.37,0.08 -0.66,0.38 -0.75,0.75l0 0c0.09,0.03 0.18,0.04 0.27,0.04l0.07 0c0.06,-0.22 0.23,-0.39 0.45,-0.45l0 -0.07c0,-0.09 -0.01,-0.18 -0.04,-0.27zm0.43 0c-0.03,0.09 -0.04,0.18 -0.04,0.27l0 0.07c0.22,0.06 0.39,0.23 0.45,0.45l0 0 0.07 0 0 -0c0.09,0 0.18,-0.01 0.27,-0.04l0 0c-0.08,-0.37 -0.38,-0.66 -0.75,-0.75l0 0zm-0.21 0.59c0.2,0 0.37,0.17 0.37,0.37 0,0.2 -0.17,0.37 -0.37,0.37 -0.2,0 -0.37,-0.17 -0.37,-0.37 0,-0.2 0.17,-0.37 0.37,-0.37zm0.62 0.54c-0.06,0.22 -0.23,0.39 -0.45,0.45l0 0.07c0,0.09 0.01,0.18 0.04,0.27 0.37,-0.08 0.66,-0.38 0.75,-0.75l0 0c-0.09,-0.03 -0.18,-0.04 -0.27,-0.04l-0.07 0 0 -0zm-1.23 0l-0.07 0c-0.09,0 -0.18,0.01 -0.27,0.04 0.08,0.37 0.38,0.66 0.75,0.75 0.03,-0.09 0.04,-0.18 0.04,-0.27l0 -0.07c-0.22,-0.06 -0.39,-0.23 -0.45,-0.45zm0.62 -1.15c-0.05,0 -0.1,0 -0.15,0.01l0 0c0.05,0.11 0.07,0.22 0.07,0.34l0 0.1c0,0.02 -0.01,0.03 -0.03,0.04 -0.19,0.04 -0.35,0.2 -0.39,0.39 -0,0.02 -0.02,0.03 -0.04,0.03l-0.1 0 0 0c-0.12,0 -0.23,-0.02 -0.34,-0.07 -0.01,0.05 -0.01,0.1 -0.01,0.15 0,0.05 0,0.1 0.01,0.15 0.11,-0.05 0.22,-0.07 0.34,-0.07l0 0 0.1 0c0.02,0 0.03,0.01 0.04,0.03 0.04,0.19 0.2,0.35 0.39,0.39 0.02,0 0.03,0.02 0.03,0.04l0 0.1c0,0.12 -0.02,0.23 -0.07,0.34l0 0c0.05,0.01 0.1,0.01 0.15,0.01 0.05,0 0.1,-0 0.15,-0.01 -0.05,-0.11 -0.07,-0.22 -0.07,-0.34l0 -0.1c0,-0.02 0.01,-0.03 0.03,-0.04 0.19,-0.04 0.35,-0.2 0.39,-0.39 0,-0.02 0.02,-0.03 0.04,-0.03l0.1 0c0.12,0 0.23,0.02 0.34,0.07 0.01,-0.05 0.01,-0.1 0.01,-0.15 0,-0.05 -0,-0.1 -0.01,-0.15 -0.11,0.05 -0.22,0.07 -0.34,0.07l-0.1 0c-0.02,0 -0.03,-0.01 -0.04,-0.03 -0.04,-0.19 -0.2,-0.35 -0.39,-0.39 -0.02,-0 -0.03,-0.02 -0.03,-0.04l0 -0.1c0,-0.12 0.02,-0.23 0.07,-0.34 -0.05,-0.01 -0.1,-0.01 -0.15,-0.01l0 0c0,0 0,0 0,0zm0 -0.44c0.79,0 1.42,0.64 1.42,1.42 0,0.79 -0.64,1.42 -1.42,1.42 -0.79,0 -1.42,-0.64 -1.42,-1.42 0,-0.79 0.64,-1.42 1.42,-1.42zm0 0z"/>
   <path class="fil0" d="M20.43 3.12l-1.22 0c-0.03,0 -0.06,0.03 -0.06,0.06l0 1.46c0,0.03 0.03,0.06 0.06,0.06l0 0c0.32,0 0.65,0 0.97,0l0.24 0c0.02,0 0.03,-0.01 0.04,-0.02 0.01,-0.01 0.02,-0.03 0.02,-0.04l0 -1.46c0,-0.02 -0.01,-0.03 -0.02,-0.04 -0.01,-0.01 -0.03,-0.02 -0.04,-0.02zm3 0l-2.55 0c-0.03,0 -0.06,0.03 -0.06,0.06l0 1.46c0,0.03 0.03,0.06 0.06,0.06l0 0c0.68,0 1.36,0 2.04,0l0.51 0 0 -0.14 -0.32 0c-0.02,0 -0.03,-0.01 -0.03,-0.03l0 -0.98c0,-0.02 0.01,-0.03 0.03,-0.03l0.32 0 0 -0.39zm0.3 0l-0.19 0 0 1.58 0 0c0.07,0 0.14,0 0.2,0 0.02,0 0.03,-0.01 0.04,-0.02 0.01,-0.01 0.02,-0.03 0.02,-0.04l-0.02 -1.46c-0,-0.03 -0.03,-0.06 -0.06,-0.06zm-2.57 1.78c-0.09,0 -0.16,0.01 -0.22,0.03 -0.06,0.02 -0.09,0.04 -0.09,0.06l0 0.01c0.01,0.02 0.05,0.04 0.12,0.06 0.06,0.01 0.12,0.02 0.19,0.02 0.01,0 0.03,-0 0.04,-0 0.09,-0 0.15,-0.01 0.21,-0.03 0.02,-0.01 0.03,-0.01 0.04,-0.02l0.01 -0.01c0.01,-0.01 0.01,-0.01 0.01,-0.02 -0,-0.02 -0.03,-0.04 -0.09,-0.06 -0.06,-0.02 -0.13,-0.02 -0.22,-0.03zm-21.05 2.51l0 0.14 0.17 0 0 -0.11c0,-0.02 -0.01,-0.03 -0.03,-0.03l-0.14 0zm23.68 -0.81c-0.01,0 -0.01,0 -0.02,0 -0.02,0.01 -0.03,0.02 -0.03,0.04 -0.06,0.31 -0.11,0.63 -0.17,0.95 -0,0.02 0,0.04 0.02,0.05 0.1,0.07 0.21,0.15 0.32,0.23l0.04 0.03 0.01 -1.17 -0.15 -0.11c-0.01,-0.01 -0.02,-0.01 -0.03,-0.01zm-23.68 1.01l0 0.34 0.14 0c0.02,0 0.03,-0.01 0.03,-0.03l0 -0.31 -0.17 0zm-0.06 0.57l-0.02 0.15 0.33 0c0.01,0 0.01,-0.01 0.01,-0.01l0 -0.12c0,-0.01 -0.01,-0.01 -0.01,-0.01l-0.31 0zm17.54 -8.18c0.06,0 0.12,0.02 0.17,0.07 0.04,0.04 0.07,0.1 0.07,0.17 0,2.25 0,4.51 0,6.76 0,0.06 -0.02,0.12 -0.07,0.17 -0.02,0.02 -0.03,0.03 -0.05,0.04l-0 0c0.28,0 0.55,0 0.83,0 0,-2.01 0,-4.01 0,-6.02 1.99,0.14 3.26,0.32 3.84,0.47 0.65,0.17 1.2,0.49 1.64,1l0.01 0.37 -0.15 0.07 0.02 1.62 0.17 0.17 -0.03 3.03 0.22 0.19 0.03 0.91 -1.68 -0.21 -0.17 0.08c-0.07,-0.82 -0.76,-1.46 -1.6,-1.46 -0.88,0 -1.61,0.72 -1.61,1.61 0,0.01 0,0.01 0,0.02l-0.36 0 0 0 0 0.18c0,0.18 -0.15,0.34 -0.34,0.34 -0.98,0 -1.96,0 -2.95,0 -0.18,0 -0.33,-0.15 -0.33,-0.34l0 -0.05c-0.58,0 -1.16,0 -1.73,0l-0.71 0 0 0.19c0,0.05 -0.04,0.1 -0.1,0.1l-0.9 0c-0.05,0 -0.1,-0.04 -0.1,-0.1l0 -0.03c-0.56,0 -1.12,0 -1.68,0 0,-0.05 0,-0.11 0,-0.16l-0.36 0c0,-0.05 0.01,-0.1 0.01,-0.15 0,-0.89 -0.72,-1.61 -1.61,-1.61 -0.89,0 -1.61,0.72 -1.61,1.61 0,0.01 0,0.01 0,0.02l0 0c-0.28,0 -0.56,0 -0.85,0 0,-0.01 0,-0.01 0,-0.02 0,-0.89 -0.72,-1.61 -1.61,-1.61 -0.89,0 -1.61,0.72 -1.61,1.61 0,0.01 0,0.01 0,0.02l-0.89 0 0 0 -1.52 -0.66 0.03 -0.26 0.06 -0.02 -0 -0.91c0.04,0 0.08,0 0.12,0l0 0c-0.07,-0.04 -0.12,-0.12 -0.12,-0.21l0 -6.76c0,-0.13 0.11,-0.24 0.24,-0.24l8.63 0 8.63 0zm0 0z"/>
  </g>
 </g>
</svg>
